<?xml version="1.0" encoding="utf-8"?>
<!-- Uploaded to: SVG Repo, www.svgrepo.com, Generator: SVG Repo Mixer Tools -->
<svg width="800px" height="800px" viewBox="0 0 246 246" fill="none" xmlns="http://www.w3.org/2000/svg">
<g clip-path="url(#clip0_397_3280)">
<g filter="url(#filter0_iii_397_3280)">
<path d="M0 115C0 51.4872 51.4873 0 115 0H127C192.722 0 246 53.2781 246 119V127C246 192.722 192.722 246 127 246H123C55.069 246 0 190.931 0 123V115Z" fill="url(#paint0_radial_397_3280)"/>
</g>
<g filter="url(#filter1_d_397_3280)">
<g filter="url(#filter2_i_397_3280)">
<circle cx="35.5" cy="35.5" r="35.5" transform="matrix(1 0 0 -1 44 141)" fill="#FAFAFA"/>
</g>
<g filter="url(#filter3_i_397_3280)">
<rect width="37.7471" height="37.7471" rx="18.8736" transform="matrix(1 0 0 -1 60.617 124.383)" fill="#2C2F36"/>
</g>
</g>
<g filter="url(#filter4_d_397_3280)">
<g filter="url(#filter5_i_397_3280)">
<circle cx="35.5" cy="35.5" r="35.5" transform="matrix(1 0 0 -1 130 141)" fill="#FAFAFA"/>
</g>
<g filter="url(#filter6_i_397_3280)">
<rect width="37.7471" height="37.7471" rx="18.8736" transform="matrix(1 0 0 -1 146.617 124.383)" fill="#2C2F36"/>
</g>
</g>
<g filter="url(#filter7_dii_397_3280)">
<path d="M128.014 79.5073C124.842 77.6494 123.745 73.5379 126.007 70.6408C128.668 67.2335 131.765 64.1782 135.226 61.5567C140.46 57.5923 146.424 54.6977 152.777 53.0381C159.13 51.3786 165.748 50.9865 172.252 51.8845C176.553 52.4782 180.749 53.6283 184.736 55.2989C188.127 56.7194 189.18 60.8425 187.322 64.0143C185.464 67.186 181.397 68.1863 177.942 66.9312C175.517 66.0501 173 65.4252 170.432 65.0707C165.659 64.4118 160.803 64.6995 156.142 65.9172C151.48 67.135 147.104 69.259 143.263 72.168C141.196 73.7333 139.307 75.5094 137.622 77.464C135.223 80.2485 131.186 81.3651 128.014 79.5073Z" fill="url(#paint1_linear_397_3280)"/>
</g>
<g filter="url(#filter8_dii_397_3280)">
<path d="M116.815 79.5073C119.987 77.6494 121.085 73.5379 118.823 70.6408C116.162 67.2335 113.065 64.1782 109.603 61.5567C104.369 57.5923 98.4053 54.6977 92.0524 53.0381C85.6995 51.3786 79.0819 50.9865 72.5775 51.8845C68.2764 52.4782 64.0805 53.6283 60.0932 55.2989C56.7029 56.7194 55.6496 60.8425 57.5075 64.0143C59.3654 67.186 63.4324 68.1863 66.8873 66.9312C69.3124 66.0501 71.8296 65.4252 74.3978 65.0707C79.1706 64.4118 84.0264 64.6995 88.688 65.9172C93.3496 67.135 97.7257 69.259 101.566 72.168C103.633 73.7333 105.523 75.5094 107.207 77.464C109.607 80.2485 113.644 81.3651 116.815 79.5073Z" fill="url(#paint2_linear_397_3280)"/>
</g>
<g filter="url(#filter9_ii_397_3280)">
<rect x="21" y="147" width="205" height="70" rx="9.5" fill="url(#paint3_linear_397_3280)"/>
</g>
<g filter="url(#filter10_i_397_3280)">
<path d="M70.7367 211.188C65.5746 211.188 61.0866 210.148 57.2728 208.067C53.459 206.026 50.512 203.156 48.4317 199.457C46.39 195.759 45.3691 191.502 45.3691 186.687C45.3691 181.332 46.4478 176.709 48.6051 172.819C50.8009 168.928 53.825 165.961 57.6773 163.92C61.5297 161.878 65.9021 160.857 70.7945 160.857C75.8411 160.857 80.1749 161.801 83.7961 163.689C87.4173 165.576 90.1717 168.157 92.0594 171.432C93.947 174.668 94.8909 178.308 94.8909 182.353C94.8909 185.705 94.3708 188.594 93.3307 191.021C92.329 193.409 90.923 195.239 89.1124 196.51C87.3018 197.743 85.2408 198.36 82.9294 198.36C80.8876 198.36 79.2311 197.917 77.9599 197.03C76.7086 196.158 75.9238 195.006 75.6055 193.574C75.5967 193.534 75.5614 193.506 75.5205 193.506C75.4921 193.506 75.4654 193.52 75.4492 193.543C74.4155 195.028 73.2491 196.21 71.9502 197.088C70.679 197.936 69.061 198.36 67.0963 198.36C64.2456 198.36 62.0112 197.416 60.3932 195.528C58.8138 193.602 58.024 191.059 58.024 187.9C58.024 185.165 58.5441 182.681 59.5842 180.446C60.6244 178.173 62.0497 176.382 63.8603 175.072C65.7094 173.762 67.809 173.108 70.1589 173.108C71.7383 173.108 73.1252 173.435 74.3194 174.09C75.4903 174.732 76.3279 175.633 76.8322 176.794C76.8505 176.836 76.8918 176.864 76.9376 176.864C76.9938 176.864 77.0416 176.823 77.0501 176.767L77.1509 176.112C77.2664 175.342 77.5939 174.764 78.1332 174.379C78.7111 173.955 79.443 173.743 80.329 173.743C81.2151 173.743 81.9085 173.994 82.4093 174.494C82.9101 174.995 83.1605 175.689 83.1605 176.575C83.1605 176.96 83.1412 177.249 83.1027 177.441L81.3692 187.265C81.1766 188.421 81.0802 189.326 81.0802 189.981C81.0802 191.098 81.3114 191.945 81.7737 192.523C82.2359 193.101 82.9871 193.39 84.0273 193.39C84.7977 193.39 85.5682 193.024 86.3387 192.292C87.1091 191.56 87.7448 190.366 88.2456 188.709C88.7849 187.053 89.0546 184.934 89.0546 182.353C89.0546 179.117 88.3612 176.286 86.9743 173.859C85.5875 171.432 83.5265 169.544 80.7913 168.196C78.0562 166.847 74.7239 166.173 70.7945 166.173C67.0963 166.173 63.8025 166.982 60.9133 168.6C58.024 170.18 55.7512 172.53 54.0947 175.65C52.4382 178.732 51.6099 182.411 51.6099 186.687C51.6099 190.539 52.3611 193.91 53.8635 196.799C55.4045 199.689 57.6003 201.923 60.451 203.502C63.3403 205.082 66.7688 205.872 70.7367 205.872C73.2408 205.872 75.3981 205.602 77.2087 205.063C79.0578 204.562 80.8491 203.753 82.5827 202.636C83.199 202.25 83.7769 202.058 84.3162 202.058C85.0867 202.058 85.7223 202.327 86.2231 202.867C86.7624 203.406 87.0321 204.042 87.0321 204.774C87.0321 205.737 86.5698 206.546 85.6453 207.201C84.1043 208.318 82.0241 209.262 79.4045 210.032C76.7849 210.803 73.8956 211.188 70.7367 211.188ZM68.4831 193.39C70.0241 193.39 71.3338 192.928 72.4125 192.003C73.5297 191.04 74.3579 189.807 74.8973 188.305C75.4751 186.764 75.764 185.146 75.764 183.451C75.764 181.679 75.3595 180.35 74.5505 179.464C73.7801 178.578 72.6822 178.135 71.2568 178.135C69.8314 178.135 68.5987 178.616 67.5586 179.579C66.5184 180.543 65.7287 181.775 65.1894 183.278C64.6501 184.78 64.3804 186.321 64.3804 187.9C64.3804 189.557 64.7464 190.886 65.4783 191.888C66.2103 192.889 67.2119 193.39 68.4831 193.39Z" fill="white"/>
<path d="M104.798 189.403C104.105 189.403 103.508 189.172 103.007 188.709C102.545 188.247 102.256 187.573 102.14 186.687L99.5976 166.462C99.5591 166.27 99.5398 166 99.5398 165.653C99.5398 164.228 100.041 163.091 101.042 162.244C102.044 161.396 103.296 160.973 104.798 160.973C106.455 160.973 107.784 161.473 108.785 162.475C109.826 163.477 110.23 164.825 109.999 166.52L107.399 186.687C107.322 187.573 107.033 188.247 106.532 188.709C106.07 189.172 105.492 189.403 104.798 189.403ZM104.798 202.347C103.373 202.347 102.198 201.884 101.273 200.96C100.349 199.997 99.8865 198.803 99.8865 197.377C99.8865 195.952 100.349 194.777 101.273 193.852C102.198 192.889 103.373 192.408 104.798 192.408C106.224 192.408 107.399 192.889 108.323 193.852C109.248 194.777 109.71 195.952 109.71 197.377C109.71 198.803 109.248 199.997 108.323 200.96C107.399 201.884 106.224 202.347 104.798 202.347Z" fill="white"/>
<path d="M132.464 200.902C131.578 202.366 130.48 203.098 129.17 203.098C128.361 203.098 127.648 202.79 127.032 202.173C126.454 201.595 126.165 200.864 126.165 199.978C126.165 199.246 126.396 198.475 126.859 197.666L147.314 162.36C148.123 160.896 149.202 160.164 150.55 160.164C151.398 160.164 152.111 160.472 152.688 161.088C153.305 161.666 153.613 162.398 153.613 163.284C153.613 164.016 153.382 164.786 152.92 165.595L132.464 200.902ZM124.952 185.531C121.639 185.531 119.038 184.472 117.151 182.353C115.302 180.196 114.377 177.075 114.377 172.992C114.377 169.024 115.321 165.981 117.208 163.862C119.096 161.705 121.677 160.626 124.952 160.626C128.265 160.626 130.846 161.705 132.695 163.862C134.582 165.981 135.526 169.043 135.526 173.05C135.526 177.133 134.582 180.234 132.695 182.353C130.846 184.472 128.265 185.531 124.952 185.531ZM124.952 180.099C126.146 180.099 127.013 179.56 127.552 178.482C128.091 177.403 128.361 175.592 128.361 173.05C128.361 170.623 128.072 168.87 127.494 167.791C126.955 166.674 126.107 166.116 124.952 166.116C123.796 166.116 122.948 166.655 122.409 167.734C121.87 168.812 121.6 170.584 121.6 173.05C121.6 175.554 121.87 177.364 122.409 178.482C122.948 179.56 123.796 180.099 124.952 180.099ZM154.769 202.404C151.456 202.404 148.855 201.345 146.968 199.226C145.119 197.069 144.194 193.949 144.194 189.865C144.194 185.859 145.119 182.796 146.968 180.677C148.855 178.559 151.456 177.499 154.769 177.499C158.043 177.499 160.624 178.578 162.512 180.735C164.4 182.854 165.343 185.917 165.343 189.923C165.343 193.968 164.4 197.069 162.512 199.226C160.663 201.345 158.082 202.404 154.769 202.404ZM154.769 196.973C155.963 196.973 156.83 196.433 157.369 195.355C157.908 194.276 158.178 192.465 158.178 189.923C158.178 187.457 157.889 185.685 157.311 184.607C156.772 183.49 155.924 182.931 154.769 182.931C153.613 182.931 152.746 183.49 152.168 184.607C151.629 185.685 151.359 187.457 151.359 189.923C151.359 192.465 151.629 194.276 152.168 195.355C152.708 196.433 153.574 196.973 154.769 196.973Z" fill="white"/>
<path d="M200.656 190.154C200.656 193.274 199.577 195.913 197.42 198.071C195.967 199.524 194.16 200.624 192 201.37C190.203 201.991 188.81 203.565 188.81 205.467C188.81 206.507 188.482 207.335 187.828 207.952C187.211 208.607 186.383 208.934 185.343 208.934C184.341 208.934 183.513 208.607 182.858 207.952C182.203 207.335 181.876 206.507 181.876 205.467C181.876 203.7 180.521 202.249 178.792 201.881C177.744 201.658 176.711 201.37 175.693 201.018C173.728 200.324 171.994 199.438 170.492 198.36C169.876 197.974 169.433 197.551 169.163 197.088C168.932 196.587 168.816 195.971 168.816 195.239C168.816 194.276 169.105 193.429 169.683 192.697C170.299 191.965 170.993 191.599 171.763 191.599C172.495 191.599 173.401 191.907 174.479 192.523C176.251 193.563 177.927 194.334 179.507 194.835C181.124 195.297 182.8 195.528 184.534 195.528C186.845 195.528 188.617 195.104 189.85 194.257C191.083 193.371 191.699 192.138 191.699 190.559C191.699 189.595 191.333 188.806 190.601 188.189C189.908 187.573 189.041 187.091 188.001 186.745C186.961 186.398 185.458 185.955 183.494 185.416C180.643 184.684 178.293 183.952 176.444 183.22C174.595 182.488 172.996 181.332 171.648 179.753C170.338 178.173 169.683 176.055 169.683 173.396C169.683 170.276 170.781 167.599 172.977 165.364C174.507 163.834 176.354 162.683 178.517 161.912C180.31 161.272 181.702 159.698 181.702 157.794C181.702 156.754 182.03 155.926 182.685 155.31C183.34 154.655 184.168 154.327 185.169 154.327C186.21 154.327 187.038 154.655 187.654 155.31C188.309 155.926 188.637 156.754 188.637 157.794C188.637 159.614 189.997 161.119 191.743 161.63C194.065 162.311 196.285 163.401 198.402 164.902C198.98 165.287 199.385 165.73 199.616 166.231C199.885 166.732 200.02 167.329 200.02 168.022C200.02 168.986 199.712 169.833 199.096 170.565C198.518 171.297 197.844 171.663 197.073 171.663C196.649 171.663 196.245 171.605 195.86 171.49C195.513 171.374 195.012 171.124 194.357 170.738C192.778 169.737 191.352 168.986 190.081 168.485C188.848 167.984 187.327 167.734 185.516 167.734C183.436 167.734 181.76 168.196 180.489 169.12C179.256 170.045 178.64 171.278 178.64 172.819C178.64 173.897 179.006 174.783 179.738 175.477C180.47 176.132 181.394 176.652 182.511 177.037C183.629 177.422 185.189 177.865 187.192 178.366C190.004 179.059 192.296 179.772 194.068 180.504C195.879 181.197 197.42 182.334 198.691 183.913C200.001 185.454 200.656 187.534 200.656 190.154Z" fill="white"/>
</g>
</g>
<defs>
<filter id="filter0_iii_397_3280" x="-11" y="-18" width="278" height="280" filterUnits="userSpaceOnUse" color-interpolation-filters="sRGB">
<feFlood flood-opacity="0" result="BackgroundImageFix"/>
<feBlend mode="normal" in="SourceGraphic" in2="BackgroundImageFix" result="shape"/>
<feColorMatrix in="SourceAlpha" type="matrix" values="0 0 0 0 0 0 0 0 0 0 0 0 0 0 0 0 0 0 127 0" result="hardAlpha"/>
<feMorphology radius="8" operator="erode" in="SourceAlpha" result="effect1_innerShadow_397_3280"/>
<feOffset dx="21" dy="13"/>
<feGaussianBlur stdDeviation="24"/>
<feComposite in2="hardAlpha" operator="arithmetic" k2="-1" k3="1"/>
<feColorMatrix type="matrix" values="0 0 0 0 0.682806 0 0 0 0 0.0652778 0 0 0 0 0.783333 0 0 0 0.14 0"/>
<feBlend mode="normal" in2="shape" result="effect1_innerShadow_397_3280"/>
<feColorMatrix in="SourceAlpha" type="matrix" values="0 0 0 0 0 0 0 0 0 0 0 0 0 0 0 0 0 0 127 0" result="hardAlpha"/>
<feOffset dy="-18"/>
<feGaussianBlur stdDeviation="15.5"/>
<feComposite in2="hardAlpha" operator="arithmetic" k2="-1" k3="1"/>
<feColorMatrix type="matrix" values="0 0 0 0 0.943639 0 0 0 0 0.223611 0 0 0 0 0.958333 0 0 0 0.44 0"/>
<feBlend mode="normal" in2="effect1_innerShadow_397_3280" result="effect2_innerShadow_397_3280"/>
<feColorMatrix in="SourceAlpha" type="matrix" values="0 0 0 0 0 0 0 0 0 0 0 0 0 0 0 0 0 0 127 0" result="hardAlpha"/>
<feOffset dx="-11" dy="16"/>
<feGaussianBlur stdDeviation="15.5"/>
<feComposite in2="hardAlpha" operator="arithmetic" k2="-1" k3="1"/>
<feColorMatrix type="matrix" values="0 0 0 0 1 0 0 0 0 1 0 0 0 0 1 0 0 0 0.59 0"/>
<feBlend mode="normal" in2="effect2_innerShadow_397_3280" result="effect3_innerShadow_397_3280"/>
</filter>
<filter id="filter1_d_397_3280" x="29.6489" y="58.6702" width="99.7021" height="99.7021" filterUnits="userSpaceOnUse" color-interpolation-filters="sRGB">
<feFlood flood-opacity="0" result="BackgroundImageFix"/>
<feColorMatrix in="SourceAlpha" type="matrix" values="0 0 0 0 0 0 0 0 0 0 0 0 0 0 0 0 0 0 127 0" result="hardAlpha"/>
<feOffset dy="3.02128"/>
<feGaussianBlur stdDeviation="7.17553"/>
<feColorMatrix type="matrix" values="0 0 0 0 0 0 0 0 0 0 0 0 0 0 0 0 0 0 0.25 0"/>
<feBlend mode="normal" in2="BackgroundImageFix" result="effect1_dropShadow_397_3280"/>
<feBlend mode="normal" in="SourceGraphic" in2="effect1_dropShadow_397_3280" result="shape"/>
</filter>
<filter id="filter2_i_397_3280" x="44" y="66.45" width="71" height="74.55" filterUnits="userSpaceOnUse" color-interpolation-filters="sRGB">
<feFlood flood-opacity="0" result="BackgroundImageFix"/>
<feBlend mode="normal" in="SourceGraphic" in2="BackgroundImageFix" result="shape"/>
<feColorMatrix in="SourceAlpha" type="matrix" values="0 0 0 0 0 0 0 0 0 0 0 0 0 0 0 0 0 0 127 0" result="hardAlpha"/>
<feOffset dy="-3.55"/>
<feGaussianBlur stdDeviation="8.875"/>
<feComposite in2="hardAlpha" operator="arithmetic" k2="-1" k3="1"/>
<feColorMatrix type="matrix" values="0 0 0 0 0 0 0 0 0 0 0 0 0 0 0 0 0 0 0.25 0"/>
<feBlend mode="normal" in2="shape" result="effect1_innerShadow_397_3280"/>
</filter>
<filter id="filter3_i_397_3280" x="60.617" y="86.636" width="37.7471" height="37.7471" filterUnits="userSpaceOnUse" color-interpolation-filters="sRGB">
<feFlood flood-opacity="0" result="BackgroundImageFix"/>
<feBlend mode="normal" in="SourceGraphic" in2="BackgroundImageFix" result="shape"/>
<feColorMatrix in="SourceAlpha" type="matrix" values="0 0 0 0 0 0 0 0 0 0 0 0 0 0 0 0 0 0 127 0" result="hardAlpha"/>
<feMorphology radius="31.2004" operator="dilate" in="SourceAlpha" result="effect1_innerShadow_397_3280"/>
<feOffset dx="10.8523" dy="-32.5569"/>
<feGaussianBlur stdDeviation="12.2088"/>
<feComposite in2="hardAlpha" operator="arithmetic" k2="-1" k3="1"/>
<feColorMatrix type="matrix" values="0 0 0 0 0.462111 0 0 0 0 0.203767 0 0 0 0 0.504167 0 0 0 0.35 0"/>
<feBlend mode="normal" in2="shape" result="effect1_innerShadow_397_3280"/>
</filter>
<filter id="filter4_d_397_3280" x="115.649" y="58.6702" width="99.7021" height="99.7021" filterUnits="userSpaceOnUse" color-interpolation-filters="sRGB">
<feFlood flood-opacity="0" result="BackgroundImageFix"/>
<feColorMatrix in="SourceAlpha" type="matrix" values="0 0 0 0 0 0 0 0 0 0 0 0 0 0 0 0 0 0 127 0" result="hardAlpha"/>
<feOffset dy="3.02128"/>
<feGaussianBlur stdDeviation="7.17553"/>
<feColorMatrix type="matrix" values="0 0 0 0 0 0 0 0 0 0 0 0 0 0 0 0 0 0 0.25 0"/>
<feBlend mode="normal" in2="BackgroundImageFix" result="effect1_dropShadow_397_3280"/>
<feBlend mode="normal" in="SourceGraphic" in2="effect1_dropShadow_397_3280" result="shape"/>
</filter>
<filter id="filter5_i_397_3280" x="130" y="66.45" width="71" height="74.55" filterUnits="userSpaceOnUse" color-interpolation-filters="sRGB">
<feFlood flood-opacity="0" result="BackgroundImageFix"/>
<feBlend mode="normal" in="SourceGraphic" in2="BackgroundImageFix" result="shape"/>
<feColorMatrix in="SourceAlpha" type="matrix" values="0 0 0 0 0 0 0 0 0 0 0 0 0 0 0 0 0 0 127 0" result="hardAlpha"/>
<feOffset dy="-3.55"/>
<feGaussianBlur stdDeviation="8.875"/>
<feComposite in2="hardAlpha" operator="arithmetic" k2="-1" k3="1"/>
<feColorMatrix type="matrix" values="0 0 0 0 0 0 0 0 0 0 0 0 0 0 0 0 0 0 0.25 0"/>
<feBlend mode="normal" in2="shape" result="effect1_innerShadow_397_3280"/>
</filter>
<filter id="filter6_i_397_3280" x="146.617" y="86.636" width="37.7471" height="37.7471" filterUnits="userSpaceOnUse" color-interpolation-filters="sRGB">
<feFlood flood-opacity="0" result="BackgroundImageFix"/>
<feBlend mode="normal" in="SourceGraphic" in2="BackgroundImageFix" result="shape"/>
<feColorMatrix in="SourceAlpha" type="matrix" values="0 0 0 0 0 0 0 0 0 0 0 0 0 0 0 0 0 0 127 0" result="hardAlpha"/>
<feMorphology radius="31.2004" operator="dilate" in="SourceAlpha" result="effect1_innerShadow_397_3280"/>
<feOffset dx="10.8523" dy="-32.5569"/>
<feGaussianBlur stdDeviation="12.2088"/>
<feComposite in2="hardAlpha" operator="arithmetic" k2="-1" k3="1"/>
<feColorMatrix type="matrix" values="0 0 0 0 0.462111 0 0 0 0 0.203767 0 0 0 0 0.504167 0 0 0 0.35 0"/>
<feBlend mode="normal" in2="shape" result="effect1_innerShadow_397_3280"/>
</filter>
<filter id="filter7_dii_397_3280" x="103.81" y="39.4148" width="117.421" height="83.0073" filterUnits="userSpaceOnUse" color-interpolation-filters="sRGB">
<feFlood flood-opacity="0" result="BackgroundImageFix"/>
<feColorMatrix in="SourceAlpha" type="matrix" values="0 0 0 0 0 0 0 0 0 0 0 0 0 0 0 0 0 0 127 0" result="hardAlpha"/>
<feOffset dx="6" dy="15"/>
<feGaussianBlur stdDeviation="13.5"/>
<feColorMatrix type="matrix" values="0 0 0 0 0.0313726 0 0 0 0 0.02 0 0 0 0 0.0352941 0 0 0 0.25 0"/>
<feBlend mode="normal" in2="BackgroundImageFix" result="effect1_dropShadow_397_3280"/>
<feBlend mode="normal" in="SourceGraphic" in2="effect1_dropShadow_397_3280" result="shape"/>
<feColorMatrix in="SourceAlpha" type="matrix" values="0 0 0 0 0 0 0 0 0 0 0 0 0 0 0 0 0 0 127 0" result="hardAlpha"/>
<feOffset dy="4.44444"/>
<feGaussianBlur stdDeviation="2.22222"/>
<feComposite in2="hardAlpha" operator="arithmetic" k2="-1" k3="1"/>
<feColorMatrix type="matrix" values="0 0 0 0 0.181961 0 0 0 0 0.116 0 0 0 0 0.204706 0 0 0 1 0"/>
<feBlend mode="normal" in2="shape" result="effect2_innerShadow_397_3280"/>
<feColorMatrix in="SourceAlpha" type="matrix" values="0 0 0 0 0 0 0 0 0 0 0 0 0 0 0 0 0 0 127 0" result="hardAlpha"/>
<feOffset dy="-4.44444"/>
<feGaussianBlur stdDeviation="2.22222"/>
<feComposite in2="hardAlpha" operator="arithmetic" k2="-1" k3="1"/>
<feColorMatrix type="matrix" values="0 0 0 0 0.12549 0 0 0 0 0.08 0 0 0 0 0.141176 0 0 0 1 0"/>
<feBlend mode="normal" in2="effect2_innerShadow_397_3280" result="effect3_innerShadow_397_3280"/>
</filter>
<filter id="filter8_dii_397_3280" x="35.5986" y="39.4148" width="117.421" height="83.0073" filterUnits="userSpaceOnUse" color-interpolation-filters="sRGB">
<feFlood flood-opacity="0" result="BackgroundImageFix"/>
<feColorMatrix in="SourceAlpha" type="matrix" values="0 0 0 0 0 0 0 0 0 0 0 0 0 0 0 0 0 0 127 0" result="hardAlpha"/>
<feOffset dx="6" dy="15"/>
<feGaussianBlur stdDeviation="13.5"/>
<feColorMatrix type="matrix" values="0 0 0 0 0.0313726 0 0 0 0 0.02 0 0 0 0 0.0352941 0 0 0 0.25 0"/>
<feBlend mode="normal" in2="BackgroundImageFix" result="effect1_dropShadow_397_3280"/>
<feBlend mode="normal" in="SourceGraphic" in2="effect1_dropShadow_397_3280" result="shape"/>
<feColorMatrix in="SourceAlpha" type="matrix" values="0 0 0 0 0 0 0 0 0 0 0 0 0 0 0 0 0 0 127 0" result="hardAlpha"/>
<feOffset dy="4.44444"/>
<feGaussianBlur stdDeviation="2.22222"/>
<feComposite in2="hardAlpha" operator="arithmetic" k2="-1" k3="1"/>
<feColorMatrix type="matrix" values="0 0 0 0 0.181961 0 0 0 0 0.116 0 0 0 0 0.204706 0 0 0 1 0"/>
<feBlend mode="normal" in2="shape" result="effect2_innerShadow_397_3280"/>
<feColorMatrix in="SourceAlpha" type="matrix" values="0 0 0 0 0 0 0 0 0 0 0 0 0 0 0 0 0 0 127 0" result="hardAlpha"/>
<feOffset dy="-4.44444"/>
<feGaussianBlur stdDeviation="2.22222"/>
<feComposite in2="hardAlpha" operator="arithmetic" k2="-1" k3="1"/>
<feColorMatrix type="matrix" values="0 0 0 0 0.12549 0 0 0 0 0.08 0 0 0 0 0.141176 0 0 0 1 0"/>
<feBlend mode="normal" in2="effect2_innerShadow_397_3280" result="effect3_innerShadow_397_3280"/>
</filter>
<filter id="filter9_ii_397_3280" x="21" y="147" width="205" height="70" filterUnits="userSpaceOnUse" color-interpolation-filters="sRGB">
<feFlood flood-opacity="0" result="BackgroundImageFix"/>
<feBlend mode="normal" in="SourceGraphic" in2="BackgroundImageFix" result="shape"/>
<feColorMatrix in="SourceAlpha" type="matrix" values="0 0 0 0 0 0 0 0 0 0 0 0 0 0 0 0 0 0 127 0" result="hardAlpha"/>
<feMorphology radius="26.45" operator="dilate" in="SourceAlpha" result="effect1_innerShadow_397_3280"/>
<feOffset dy="28"/>
<feGaussianBlur stdDeviation="7"/>
<feComposite in2="hardAlpha" operator="arithmetic" k2="-1" k3="1"/>
<feColorMatrix type="matrix" values="0 0 0 0 0.3625 0 0 0 0 0.3625 0 0 0 0 0.3625 0 0 0 0.97 0"/>
<feBlend mode="normal" in2="shape" result="effect1_innerShadow_397_3280"/>
<feColorMatrix in="SourceAlpha" type="matrix" values="0 0 0 0 0 0 0 0 0 0 0 0 0 0 0 0 0 0 127 0" result="hardAlpha"/>
<feMorphology radius="26.45" operator="dilate" in="SourceAlpha" result="effect2_innerShadow_397_3280"/>
<feOffset dx="9.2" dy="-9"/>
<feGaussianBlur stdDeviation="10.35"/>
<feComposite in2="hardAlpha" operator="arithmetic" k2="-1" k3="1"/>
<feColorMatrix type="matrix" values="0 0 0 0 0.462111 0 0 0 0 0.203767 0 0 0 0 0.504167 0 0 0 0.35 0"/>
<feBlend mode="normal" in2="effect1_innerShadow_397_3280" result="effect2_innerShadow_397_3280"/>
</filter>
<filter id="filter10_i_397_3280" x="45.3691" y="152.327" width="155.287" height="58.8604" filterUnits="userSpaceOnUse" color-interpolation-filters="sRGB">
<feFlood flood-opacity="0" result="BackgroundImageFix"/>
<feBlend mode="normal" in="SourceGraphic" in2="BackgroundImageFix" result="shape"/>
<feColorMatrix in="SourceAlpha" type="matrix" values="0 0 0 0 0 0 0 0 0 0 0 0 0 0 0 0 0 0 127 0" result="hardAlpha"/>
<feOffset dy="-2"/>
<feGaussianBlur stdDeviation="1.5"/>
<feComposite in2="hardAlpha" operator="arithmetic" k2="-1" k3="1"/>
<feColorMatrix type="matrix" values="0 0 0 0 0 0 0 0 0 0 0 0 0 0 0 0 0 0 0.25 0"/>
<feBlend mode="normal" in2="shape" result="effect1_innerShadow_397_3280"/>
</filter>
<radialGradient id="paint0_radial_397_3280" cx="0" cy="0" r="1" gradientUnits="userSpaceOnUse" gradientTransform="translate(109 16) rotate(86.5167) scale(230.426)">
<stop stop-color="#FF9E0C"/>
<stop offset="1" stop-color="#FF0761"/>
</radialGradient>
<linearGradient id="paint1_linear_397_3280" x1="208.558" y1="126.686" x2="122.271" y2="76.1433" gradientUnits="userSpaceOnUse">
<stop stop-color="#2D1D32"/>
<stop offset="1" stop-color="#221526"/>
</linearGradient>
<linearGradient id="paint2_linear_397_3280" x1="36.2715" y1="126.686" x2="122.558" y2="76.1433" gradientUnits="userSpaceOnUse">
<stop stop-color="#2D1D32"/>
<stop offset="1" stop-color="#221526"/>
</linearGradient>
<linearGradient id="paint3_linear_397_3280" x1="123.5" y1="147" x2="123.5" y2="217" gradientUnits="userSpaceOnUse">
<stop stop-color="#201721"/>
<stop offset="1" stop-color="#2B1F2C"/>
</linearGradient>
<clipPath id="clip0_397_3280">
<rect width="246" height="246" fill="white"/>
</clipPath>
</defs>
</svg>