<svg xmlns="http://www.w3.org/2000/svg" xmlns:xlink="http://www.w3.org/1999/xlink" width="1080" zoomAndPan="magnify" viewBox="0 0 810 809.999993" height="1080" preserveAspectRatio="xMidYMid meet" version="1.0"><path fill="#f3a00d" d="M 681.308594 115.035156 C 690.25 123.175781 698.289062 132.292969 706.234375 141.398438 C 757.175781 199.703125 789.4375 271.945312 800 348.570312 C 801.554688 359.890625 802.9375 371.285156 803.464844 382.703125 C 804.71875 409.496094 803.609375 436.5625 799.582031 463.097656 C 787.800781 540.832031 752.539062 615.675781 699.429688 673.773438 C 644.730469 733.605469 572.792969 776.515625 493.746094 794.996094 C 468.148438 800.984375 442.273438 804.082031 416.035156 805.207031 C 310.535156 809.699219 205.679688 768.585938 128.207031 697.53125 L 109.332031 678.476562 C 110.730469 678.234375 111.5 678.75 112.6875 679.40625 C 125.140625 686.421875 136.859375 694.578125 149.570312 701.242188 C 197.542969 726.363281 252.195312 742.46875 306.316406 745.933594 C 335.140625 747.78125 363.902344 747.21875 392.550781 743.300781 C 461.601562 733.847656 528.832031 706.183594 584.335938 664.074219 L 605.617188 647.042969 C 633.898438 622.046875 659 593.550781 679.382812 561.734375 C 714.613281 506.734375 736.023438 442.519531 742.988281 377.722656 C 745.332031 355.921875 746.390625 333.832031 745.203125 311.921875 C 743.148438 273.808594 734.753906 234.863281 721.386719 199.140625 C 715.898438 184.5 709.398438 169.8125 702.300781 155.894531 L 688.164062 129.835938 C 685.964844 125.886719 683.316406 121.921875 681.484375 117.828125 C 681.179688 117.140625 681.085938 116.578125 681.179688 115.824219 Z M 681.308594 115.035156 " fill-opacity="1" fill-rule="nonzero"/><path fill="#fec108" d="M 109.332031 678.492188 L 109.253906 678.445312 C 99.71875 669.484375 91.550781 658.34375 83.589844 647.992188 C 31.585938 580.5 3.660156 496.042969 1.558594 411.148438 C -0.046875 346.742188 15.152344 280.308594 44.296875 222.871094 C 62.179688 187.617188 85.773438 154.707031 113.023438 126.113281 C 185.972656 49.554688 288.660156 4.28125 394.351562 1.90625 C 472.386719 0.15625 551.351562 22.726562 617.09375 64.738281 C 632.726562 74.726562 647.570312 85.960938 661.742188 97.90625 L 681.308594 115.035156 L 681.179688 115.824219 C 681.085938 116.578125 681.179688 117.140625 681.484375 117.828125 C 683.316406 121.9375 685.964844 125.90625 688.164062 129.835938 L 702.300781 155.894531 C 709.398438 169.8125 715.898438 184.515625 721.386719 199.140625 C 734.773438 234.847656 743.148438 273.808594 745.203125 311.921875 C 746.390625 333.832031 745.332031 355.921875 742.988281 377.722656 C 736.023438 442.519531 714.628906 506.734375 679.382812 561.734375 C 659 593.550781 633.914062 622.046875 605.617188 647.042969 L 584.335938 664.074219 C 528.832031 706.203125 461.582031 733.847656 392.550781 743.300781 C 363.902344 747.234375 335.15625 747.78125 306.316406 745.933594 C 252.195312 742.46875 197.542969 726.363281 149.570312 701.242188 C 136.859375 694.578125 125.140625 686.4375 112.6875 679.40625 C 111.515625 678.75 110.746094 678.234375 109.332031 678.476562 Z M 109.332031 678.492188 " fill-opacity="1" fill-rule="nonzero"/><path fill="#010100" d="M 257.332031 181.015625 C 258.824219 181.082031 260.429688 181.082031 261.777344 181.820312 C 262.851562 182.414062 263.574219 183.425781 263.78125 184.628906 C 264.230469 187.199219 262.175781 189.6875 260.699219 191.597656 C 256.414062 197.136719 250.703125 201.726562 245.117188 205.902344 C 229.324219 217.667969 208.039062 229.292969 188.203125 231.941406 C 186.644531 232.003906 184.222656 232.050781 182.9375 231.042969 C 181.894531 230.222656 181.636719 229.308594 181.574219 228.054688 C 181.382812 224.636719 185.136719 220.558594 187.273438 218.117188 C 199.164062 204.585938 216.417969 194.199219 232.984375 187.4375 C 240.960938 184.179688 248.710938 181.59375 257.347656 181.035156 Z M 257.332031 181.015625 " fill-opacity="1" fill-rule="nonzero"/><path fill="#010100" d="M 542.828125 180.90625 L 548.414062 180.824219 C 555.378906 181.144531 562.777344 183.683594 569.230469 186.1875 C 587.046875 193.105469 603.738281 202.914062 616.628906 217.234375 C 619.835938 220.796875 623.398438 224.972656 623.113281 230.011719 C 622.339844 231.410156 621.636719 231.875 620.253906 232.628906 C 618.699219 232.742188 617.109375 232.886719 615.550781 232.773438 C 609.148438 232.308594 602.742188 230.191406 596.773438 227.894531 C 584.445312 223.140625 572.441406 216.320312 561.800781 208.5 C 556.085938 204.3125 550.53125 199.816406 545.847656 194.453125 C 543.167969 191.371094 539.652344 187.726562 539.925781 183.410156 C 540.628906 181.980469 541.402344 181.613281 542.796875 180.890625 Z M 542.828125 180.90625 " fill-opacity="1" fill-rule="nonzero"/><path fill="#f3a00d" d="M 629.066406 402.929688 C 640.734375 401.644531 652.113281 404.230469 662.5625 409.367188 L 664.984375 410.636719 C 673.285156 415.628906 679.320312 422.851562 681.789062 432.226562 L 682.417969 435.035156 C 683.425781 442.679688 680.121094 450.816406 675.304688 456.597656 C 666.671875 466.96875 651.9375 472.3125 638.871094 473.597656 L 638.503906 473.660156 C 625.085938 475.523438 609.019531 470.484375 598.457031 462.214844 C 591.894531 457.0625 586.839844 449.613281 585.84375 441.203125 C 585.007812 434.1875 587.480469 426.109375 591.894531 420.605469 C 600.898438 409.335938 615.199219 404.4375 629.082031 402.929688 Z M 629.066406 402.929688 " fill-opacity="1" fill-rule="nonzero"/><path fill="#f3a00d" d="M 168.703125 398.59375 C 182.34375 397.984375 196.292969 401.484375 207.140625 410.074219 C 214.414062 415.835938 220.269531 424.425781 221.3125 433.847656 C 222.421875 443.753906 219.242188 452.453125 212.953125 460.082031 C 204.125 470.773438 190.257812 475.476562 176.871094 476.695312 L 176.695312 476.726562 C 162.78125 477.804688 149.039062 473.773438 138.03125 465.203125 C 130.261719 459.148438 125.222656 450.832031 124.164062 441.007812 C 123.199219 432.066406 126.570312 423.042969 132.21875 416.207031 C 141.257812 405.273438 154.851562 399.816406 168.6875 398.609375 Z M 168.703125 398.59375 " fill-opacity="1" fill-rule="nonzero"/><path fill="#010100" d="M 393.789062 461.027344 C 420.175781 459.246094 447.234375 464.785156 470.972656 476.375 C 498.417969 489.78125 523.007812 512.703125 537.453125 539.707031 C 541.046875 546.433594 543.777344 553.402344 546.246094 560.609375 L 542.78125 556.46875 C 511.308594 518.226562 466.574219 492.09375 416.980469 487.339844 L 385.585938 487.53125 C 336.457031 491.5625 291.726562 521.535156 260.523438 558.296875 C 266.574219 541.167969 275.660156 526.078125 287.535156 512.382812 C 314.757812 481 352.621094 463.851562 393.773438 461.027344 Z M 393.789062 461.027344 " fill-opacity="1" fill-rule="nonzero"/><path fill="#010100" d="M 244.683594 263.808594 C 260.460938 262.875 276.398438 267.980469 288.613281 277.964844 C 302.847656 289.605469 311.453125 305.5 313.167969 323.769531 C 314.949219 342.695312 308.964844 361.078125 296.878906 375.652344 C 284.550781 390.519531 268.679688 397.808594 249.785156 399.636719 C 233.144531 400.3125 216.675781 394.148438 204.09375 383.328125 C 190.433594 371.574219 181.992188 353.707031 180.773438 335.824219 C 179.601562 318.679688 184.832031 300.183594 196.371094 287.195312 C 209.390625 272.554688 225.214844 265.074219 244.699219 263.839844 Z M 244.683594 263.808594 " fill-opacity="1" fill-rule="nonzero"/><path fill="#fefefe" d="M 275.433594 295.867188 C 279.046875 296.125 282.304688 296.910156 285.355469 298.933594 C 289.09375 301.40625 292.128906 305.753906 292.847656 310.203125 C 293.621094 314.890625 291.886719 320.253906 288.964844 323.929688 C 285.722656 328.007812 281.664062 329.226562 276.765625 329.898438 C 273.234375 329.949219 269.800781 329.210938 266.878906 327.15625 C 262.914062 324.363281 260.105469 320.058594 259.386719 315.242188 C 258.710938 310.75 259.898438 306.238281 262.675781 302.625 C 266.03125 298.273438 270.136719 296.507812 275.417969 295.867188 Z M 275.433594 295.867188 " fill-opacity="1" fill-rule="nonzero"/><path fill="#010100" d="M 553.535156 263.789062 L 553.613281 263.789062 C 570.257812 262.539062 587.800781 268.351562 600.5625 279.042969 C 614.394531 290.648438 622.660156 306.75 624.136719 324.683594 C 625.679688 343.417969 619.902344 362.265625 607.65625 376.617188 C 596.257812 389.972656 580.371094 397.96875 562.957031 399.332031 C 545.957031 400.96875 528.015625 394.902344 514.871094 384.164062 C 501.355469 373.132812 493.027344 356.085938 491.386719 338.859375 C 489.640625 320.589844 494.824219 301.984375 506.570312 287.757812 C 518.367188 273.472656 535.285156 265.492188 553.550781 263.789062 Z M 553.535156 263.789062 " fill-opacity="1" fill-rule="nonzero"/><path fill="#fefefe" d="M 586.324219 295.800781 C 589.535156 295.578125 592.472656 296.074219 595.359375 297.535156 C 599.550781 299.640625 602.550781 304.085938 603.914062 308.453125 C 605.265625 312.753906 604.605469 317.167969 602.375 321.070312 C 599.664062 325.804688 595.585938 328.328125 590.386719 329.628906 C 586.597656 329.851562 583.164062 329.628906 579.777344 327.699219 C 576.164062 325.664062 573.019531 321.921875 571.945312 317.859375 C 570.628906 312.914062 571.253906 307.664062 574 303.332031 C 576.808594 298.882812 581.382812 296.957031 586.292969 295.785156 Z M 586.324219 295.800781 " fill-opacity="1" fill-rule="nonzero"/></svg>